<?xml version="1.0" encoding="utf-8"?>
<!-- Generator: Adobe Illustrator 19.0.0, SVG Export Plug-In . SVG Version: 6.00 Build 0)  -->
<svg version="1.1" id="Layer_1" xmlns="http://www.w3.org/2000/svg" xmlns:xlink="http://www.w3.org/1999/xlink" x="0px" y="0px"
	 viewBox="-887 384.9 74.3 72" style="enable-background:new -887 384.9 74.3 72;" xml:space="preserve">
<style type="text/css">
	.st0{fill:#343434;}
</style>
<g>
	<path class="st0" d="M-839.7,432.5c-0.1,0-0.2,0-0.3,0c-1.9-0.1-3.4-1.5-3.6-3.2c-0.1-0.5,0-1.1,0.2-1.6c0.1-0.2,0-0.3-0.1-0.4
		s-0.3-0.2-0.4-0.2h-5.2c-0.2,0-0.3,0.1-0.4,0.2c-0.1,0.1-0.1,0.3-0.1,0.4c0.1,0.4,0.2,0.8,0.2,1.2c0,2-1.8,3.6-3.9,3.6
		c-0.1,0-0.2,0-0.3,0c-1.9-0.1-3.5-1.6-3.6-3.3c0-0.5,0-1,0.2-1.5c0.1-0.1,0-0.3-0.1-0.4c-0.1-0.1-0.2-0.2-0.4-0.2
		c-2.1-0.1-3.8-1.8-3.8-3.7c0-1.7,1.3-3.2,3-3.6c0.1,0,0.3-0.1,0.3-0.2c0.1-0.1,0.1-0.3,0.1-0.4l-3.5-11.5l-2.5-8.3
		c-0.1-0.2-0.3-0.4-0.5-0.4h-5c-0.4,0-0.8-0.3-0.8-0.7V398c0-0.4,0.4-0.7,0.8-0.7h5.8c0.5,0,1,0.3,1.2,0.8l1.3,4.2
		c0,0.1,0.2,0.3,0.3,0.3c0.1,0,0.1,0,0.2,0c0.1,0,0.2,0,0.3-0.1c0.5-0.3,1.1-0.5,1.7-0.5h25.5c1,0,2,0.4,2.6,1.1
		c0.7,0.8,0.9,1.8,0.6,2.7l-3.5,13c-0.4,1.4-1.7,2.3-3.2,2.3h-20.8c-0.6,0-1.1,0.2-1.5,0.6c-0.4,0.4-0.6,0.9-0.6,1.4
		c0,1,1,1.9,2.1,1.9h17.4c2.2,0,4,1.6,4,3.7C-835.7,430.9-837.5,432.5-839.7,432.5z M-839.6,427c-1.1,0-2,0.8-2,1.9
		c0,1,0.9,1.9,2,1.9c1.1,0,2-0.8,2-1.9C-837.7,427.8-838.5,427-839.6,427z M-853.3,427c-1.1,0-2,0.8-2,1.9c0,1,0.9,1.9,2,1.9
		c1.1,0,2-0.8,2-1.9C-851.3,427.8-852.2,427-853.3,427z M-838.1,415.7c-0.3,0-0.5,0.2-0.5,0.4l-0.6,2.8c0,0.1,0,0.3,0.1,0.4
		s0.3,0.2,0.4,0.2h2.3c0.6,0,1.2-0.4,1.4-1l0.6-2.2c0-0.1,0-0.3-0.1-0.4c-0.1-0.1-0.3-0.2-0.4-0.2H-838.1z M-844.1,415.7
		c-0.3,0-0.5,0.2-0.5,0.5v2.8c0,0.3,0.2,0.5,0.5,0.5h2.4c0.3,0,0.5-0.2,0.5-0.4l0.6-2.8c0-0.1,0-0.3-0.1-0.4
		c-0.1-0.1-0.3-0.2-0.4-0.2H-844.1z M-849.9,415.7c-0.2,0-0.3,0.1-0.4,0.2c-0.1,0.1-0.1,0.3-0.1,0.4l0.7,2.8
		c0.1,0.2,0.3,0.4,0.5,0.4h2.1c0.3,0,0.5-0.2,0.5-0.5v-2.8c0-0.3-0.2-0.5-0.5-0.5H-849.9z M-856.1,415.7c-0.2,0-0.3,0.1-0.4,0.2
		s-0.1,0.3-0.1,0.4l0.7,2.2c0.2,0.6,0.7,0.9,1.3,0.9c0,0,0.1,0,0.1,0h2.2c0.2,0,0.3-0.1,0.4-0.2c0.1-0.1,0.1-0.3,0.1-0.4l-0.7-2.8
		c-0.1-0.2-0.3-0.4-0.5-0.4H-856.1z M-836.7,409.9c-0.3,0-0.5,0.2-0.5,0.4l-0.7,3c0,0.1,0,0.3,0.1,0.4c0.1,0.1,0.3,0.2,0.4,0.2h3.2
		c0.2,0,0.5-0.2,0.5-0.4l0.8-3c0-0.1,0-0.3-0.1-0.4c-0.1-0.1-0.3-0.2-0.4-0.2H-836.7z M-844.1,409.9c-0.3,0-0.5,0.2-0.5,0.5v3
		c0,0.3,0.2,0.5,0.5,0.5h3.6c0.3,0,0.5-0.2,0.5-0.4l0.7-3c0-0.1,0-0.3-0.1-0.4c-0.1-0.1-0.3-0.2-0.4-0.2H-844.1z M-851.2,409.9
		c-0.2,0-0.3,0.1-0.4,0.2c-0.1,0.1-0.1,0.3-0.1,0.4l0.7,3c0.1,0.2,0.3,0.4,0.5,0.4h3.4c0.3,0,0.5-0.2,0.5-0.5v-3
		c0-0.3-0.2-0.5-0.5-0.5H-851.2z M-857.8,409.9c-0.2,0-0.3,0.1-0.4,0.2c-0.1,0.1-0.1,0.3-0.1,0.4l0.9,3c0.1,0.2,0.3,0.4,0.5,0.4h3.3
		c0.2,0,0.3-0.1,0.4-0.2c0.1-0.1,0.1-0.3,0.1-0.4l-0.7-3c-0.1-0.2-0.3-0.4-0.5-0.4H-857.8z M-859.2,407.8c0.1,0.2,0.3,0.4,0.5,0.4
		h3.7c0.2,0,0.3-0.1,0.4-0.2c0.1-0.1,0.1-0.3,0.1-0.4l-0.8-3.2c-0.1-0.2-0.3-0.4-0.5-0.4h-2.8c-0.6,0-1,0.4-1.1,0.5
		c-0.1,0.1-0.4,0.6-0.2,1.1L-859.2,407.8z M-844.1,403.9c-0.3,0-0.5,0.2-0.5,0.5v3.2c0,0.3,0.2,0.5,0.5,0.5h4.9
		c0.3,0,0.5-0.2,0.5-0.4l0.7-3.2c0-0.1,0-0.3-0.1-0.4c-0.1-0.1-0.3-0.2-0.4-0.2H-844.1z M-852.7,403.9c-0.2,0-0.3,0.1-0.4,0.2
		c-0.1,0.1-0.1,0.3-0.1,0.4l0.8,3.2c0.1,0.2,0.3,0.4,0.5,0.4h4.8c0.3,0,0.5-0.2,0.5-0.5v-3.2c0-0.3-0.2-0.5-0.5-0.5H-852.7z
		 M-835.4,403.9c-0.3,0-0.5,0.2-0.5,0.4l-0.7,3.2c0,0.1,0,0.3,0.1,0.4c0.1,0.1,0.3,0.2,0.4,0.2h3.4c0.2,0,0.5-0.2,0.5-0.4l0.6-2.2
		c0.1-0.4,0-0.8-0.3-1.1c-0.2-0.3-0.6-0.5-1.1-0.5H-835.4z"/>
	<g>
		<path class="st0" d="M-865.9,447.2h-2.3l0.4,0.3c-0.4,1.3-1,2.4-1.6,3.4l-0.6-0.5c0.5-0.8,1-1.9,1.5-3.3h-0.9v-8.8h3.4V447.2z
			 M-866.7,441.1v-2h-2v2H-866.7z M-866.7,443.7v-2h-2v2H-866.7z M-866.7,446.5v-2.1h-2v2.1H-866.7z M-865.6,450.1l-0.6,0.3
			c-0.2-0.7-0.6-1.4-1-2.3l0.7-0.3C-866.2,448.6-865.8,449.4-865.6,450.1z M-856.9,448.4h-1v1.5c0,0.3-0.1,0.5-0.2,0.7
			s-0.3,0.3-0.5,0.3c-0.2,0.1-0.5,0.1-1.1,0.1c-0.3,0-0.5,0-0.8,0l-0.3-0.8c0.3,0,0.9,0,1.7,0c0.3,0,0.4-0.1,0.4-0.4v-1.4h-5v2.6
			h-0.7v-2.6h-1.2v-0.7h1.2v-3.5h2.8v-1.1h-3.8v-0.6h2.2v-1.2h-1.6v-0.7h1.6v-1h-2.1V439h2.1v-1.1h0.7v1.1h2.5v-1.1h0.7v1.1h2.1v0.7
			h-2.1v1h1.6v0.7h-1.6v1.2h2.3v0.6h-3.9v1.1h2.9v3.5h1V448.4z M-861.6,446v-1.1h-2.1v1.1H-861.6z M-861.6,447.7v-1.1h-2.1v1.1
			H-861.6z M-860,440.6v-1h-2.5v1H-860z M-860,442.4v-1.2h-2.5v1.2H-860z M-858.7,446v-1.1h-2.2v1.1H-858.7z M-858.7,447.7v-1.1
			h-2.2v1.1H-858.7z"/>
		<path class="st0" d="M-849.1,445.2c-0.6,0.3-1.2,0.6-1.7,0.8v5h-0.8v-4.7c-0.9,0.4-1.8,0.7-2.6,0.9l-0.2-0.8
			c1-0.3,1.9-0.6,2.7-0.9v-3.8h-1.3c-0.2,1-0.4,1.9-0.7,2.6l-0.7-0.3c0.6-1.6,1-3.3,1-5l0.7,0.1c0,0.5-0.1,1.1-0.2,1.8h1.2v-3.1h0.8
			v3.1h1.6v0.7h-1.6v3.5c0.5-0.2,1.1-0.5,1.7-0.8V445.2z M-841.6,440c0,2.1-0.1,4.2-0.2,6.3c-0.1,2.1-0.3,3.3-0.4,3.6
			c-0.1,0.3-0.4,0.6-0.6,0.8c-0.3,0.2-0.8,0.3-1.5,0.3c-0.4,0-0.7,0-1.1-0.1l-0.3-0.8c0.4,0,0.9,0.1,1.3,0.1c0.6,0,1.1-0.1,1.3-0.2
			c0.2-0.1,0.3-0.3,0.4-0.6c0.1-0.3,0.2-1.3,0.3-3.2c0.1-1.9,0.2-3.7,0.2-5.5h-0.9c-0.4,4.1-2,7.3-4.8,9.7l-0.6-0.5
			c2.8-2.2,4.4-5.3,4.7-9.2h-1.2c-0.5,2.7-1.7,4.9-3.5,6.8l-0.6-0.4c1.8-1.8,3-3.9,3.4-6.3h-1.2c-0.6,1.2-1.1,2.1-1.6,2.7l-0.6-0.4
			c1.1-1.2,1.9-3,2.4-5.2l0.7,0.1c-0.2,0.9-0.4,1.6-0.6,2H-841.6z"/>
		<path class="st0" d="M-825.7,448.9h-6.1v2h-0.8v-2h-6.1v-0.8h6.1v-1.3h-4.8v-5.4h4.8v-1.3h-5.8v-0.8h5.8v-1.5h0.8v1.5h5.8v0.8
			h-5.8v1.3h4.8v5.4h-4.8v1.3h6.1V448.9z M-832.5,443.7v-1.5h-4v1.5H-832.5z M-832.5,446v-1.6h-4v1.6H-832.5z M-827.7,443.7v-1.5h-4
			v1.5H-827.7z M-827.7,444.4h-4v1.6h4L-827.7,444.4z"/>
	</g>
</g>
</svg>
