<?xml version="1.0" encoding="utf-8"?>
<!-- Generator: Adobe Illustrator 16.0.0, SVG Export Plug-In . SVG Version: 6.00 Build 0)  -->
<!DOCTYPE svg PUBLIC "-//W3C//DTD SVG 1.1//EN" "http://www.w3.org/Graphics/SVG/1.1/DTD/svg11.dtd">
<svg version="1.1" id="圖層_1" xmlns="http://www.w3.org/2000/svg" xmlns:xlink="http://www.w3.org/1999/xlink" x="0px" y="0px"
	 width="32.936px" height="32.938px" viewBox="0 0 32.936 32.938" enable-background="new 0 0 32.936 32.938" xml:space="preserve">
<g>
	<path fill="#666666" d="M14.575,19.441c-0.125-0.044-0.257-0.043-0.386,0.007c-0.128,0.053-0.227,0.135-0.289,0.247
		c-0.146,0.277-0.094,0.479,0.18,0.604c0.124,0.045,0.253,0.043,0.388-0.006c0.135-0.051,0.232-0.133,0.295-0.249
		c0.07-0.116,0.087-0.234,0.046-0.355C14.769,19.568,14.691,19.485,14.575,19.441z"/>
	<path fill="#666666" d="M13.048,20.07c-0.304-0.125-0.63-0.129-0.979-0.014c-0.35,0.118-0.613,0.322-0.805,0.618
		c-0.194,0.303-0.255,0.604-0.174,0.916c0.08,0.309,0.271,0.533,0.575,0.677c0.305,0.146,0.638,0.154,0.999,0.033
		c0.357-0.121,0.642-0.332,0.837-0.635c0.188-0.31,0.233-0.612,0.146-0.929C13.562,20.428,13.361,20.204,13.048,20.07z"/>
	<path fill="#666666" d="M20.08,17.055c-0.714-0.661-1.646-1.146-2.793-1.459c-1.147-0.313-2.373-0.407-3.68-0.281
		c-1.988,0.205-3.642,0.837-4.946,1.896c-1.313,1.058-1.9,2.239-1.774,3.544c0.079,0.854,0.479,1.615,1.191,2.272
		c0.715,0.66,1.645,1.146,2.793,1.464c1.146,0.313,2.374,0.403,3.677,0.278c1.99-0.206,3.641-0.837,4.95-1.896
		c1.308-1.063,1.896-2.24,1.771-3.543C21.193,18.476,20.794,17.717,20.08,17.055z M17.095,21.478
		c-0.403,0.909-1.108,1.579-2.118,2.007c-1.01,0.434-2.009,0.484-3.001,0.162c-0.955-0.304-1.613-0.868-1.975-1.69
		c-0.362-0.827-0.333-1.665,0.086-2.516c0.421-0.83,1.097-1.452,2.03-1.858c0.933-0.411,1.873-0.497,2.815-0.254
		c0.992,0.258,1.699,0.792,2.124,1.601C17.486,19.733,17.495,20.582,17.095,21.478z"/>
	<path fill="#666666" d="M16.468,0.001C7.373,0.001,0,7.374,0,16.469s7.373,16.468,16.468,16.468s16.468-7.373,16.468-16.468
		S25.563,0.001,16.468,0.001z M24.904,21.256c-0.331,0.638-0.813,1.25-1.462,1.834c-0.642,0.586-1.395,1.11-2.256,1.575
		c-0.858,0.463-1.871,0.835-3.024,1.106c-1.155,0.278-2.363,0.416-3.623,0.416c-1.261,0-2.486-0.146-3.687-0.445
		c-1.198-0.303-2.271-0.718-3.223-1.245c-0.951-0.531-1.717-1.206-2.297-2.023c-0.581-0.817-0.871-1.706-0.871-2.673
		c0-1.026,0.311-2.119,0.931-3.282c0.621-1.159,1.503-2.313,2.646-3.455c1.51-1.51,3.03-2.563,4.571-3.16
		c1.54-0.602,2.646-0.564,3.306,0.096c0.581,0.568,0.67,1.505,0.269,2.8c-0.036,0.125-0.041,0.214-0.014,0.269
		c0.023,0.058,0.071,0.085,0.133,0.098c0.063,0.008,0.129,0.006,0.195-0.01c0.063-0.015,0.128-0.025,0.181-0.049l0.08-0.022
		c1.241-0.526,2.34-0.789,3.295-0.789c0.956,0,1.639,0.271,2.05,0.813c0.402,0.563,0.402,1.358,0,2.389
		c-0.018,0.112-0.037,0.202-0.06,0.269c-0.023,0.063-0.003,0.117,0.06,0.167c0.063,0.049,0.116,0.083,0.162,0.103
		c0.043,0.02,0.12,0.045,0.229,0.078c0.509,0.161,0.971,0.371,1.38,0.633c0.412,0.26,0.769,0.621,1.068,1.093
		C25.25,18.307,25.4,18.825,25.4,19.4C25.4,19.993,25.234,20.616,24.904,21.256z M23.229,12.086
		c-0.393-0.433-0.87-0.585-1.434-0.469c-0.214,0.045-0.414,0.01-0.604-0.108c-0.188-0.115-0.298-0.28-0.336-0.495
		c-0.044-0.215-0.008-0.413,0.107-0.597c0.118-0.186,0.282-0.296,0.497-0.342c0.536-0.115,1.063-0.096,1.594,0.071
		c0.526,0.165,0.979,0.457,1.354,0.877c0.371,0.419,0.613,0.905,0.729,1.454c0.111,0.549,0.082,1.074-0.088,1.574
		c-0.071,0.204-0.204,0.357-0.396,0.455c-0.188,0.098-0.39,0.115-0.595,0.052c-0.205-0.065-0.354-0.202-0.456-0.395
		c-0.099-0.191-0.116-0.395-0.055-0.6C23.73,13.009,23.622,12.515,23.229,12.086z M27.703,15.596
		c-0.227,0.116-0.456,0.135-0.697,0.054c-0.24-0.08-0.42-0.229-0.534-0.455c-0.117-0.225-0.139-0.457-0.068-0.693
		c0.251-0.732,0.299-1.5,0.138-2.308c-0.159-0.805-0.521-1.51-1.071-2.114c-0.554-0.615-1.215-1.041-1.983-1.279
		c-0.768-0.235-1.541-0.273-2.313-0.113c-0.25,0.057-0.482,0.014-0.696-0.126c-0.216-0.139-0.349-0.333-0.401-0.584
		c-0.055-0.25-0.012-0.479,0.128-0.688c0.141-0.209,0.333-0.345,0.583-0.396c1.102-0.229,2.188-0.181,3.271,0.154
		c1.08,0.335,2.009,0.936,2.786,1.802c0.777,0.858,1.28,1.854,1.508,2.98c0.229,1.13,0.167,2.206-0.181,3.232
		C28.078,15.302,27.926,15.48,27.703,15.596z"/>
</g>
<g>
	<g>
		<path d="M-12.379,40.192c-0.409-0.26-0.871-0.47-1.38-0.631c-0.106-0.035-0.188-0.063-0.229-0.079
			c-0.046-0.019-0.1-0.053-0.162-0.102c-0.063-0.05-0.083-0.104-0.06-0.167c0.021-0.063,0.042-0.152,0.06-0.271
			c0.402-1.023,0.402-1.818,0-2.386c-0.411-0.545-1.094-0.813-2.05-0.813c-0.955,0-2.054,0.263-3.295,0.788l-0.08,0.023
			c-0.053,0.021-0.114,0.034-0.181,0.049c-0.067,0.016-0.137,0.018-0.195,0.006c-0.063-0.009-0.105-0.04-0.133-0.094
			c-0.027-0.055-0.022-0.144,0.014-0.269c0.401-1.295,0.313-2.229-0.269-2.802c-0.66-0.658-1.766-0.691-3.306-0.094
			c-1.541,0.601-3.063,1.65-4.571,3.16c-1.146,1.146-2.024,2.296-2.646,3.455c-0.62,1.163-0.931,2.256-0.931,3.282
			c0,0.967,0.29,1.854,0.871,2.673c0.58,0.816,1.347,1.492,2.297,2.021s2.021,0.944,3.223,1.243
			c1.196,0.303,2.426,0.449,3.687,0.449c1.26,0,2.468-0.138,3.619-0.416c1.157-0.272,2.166-0.646,3.028-1.108
			c0.861-0.467,1.614-0.987,2.256-1.573c0.646-0.584,1.131-1.196,1.462-1.834c0.33-0.644,0.496-1.267,0.496-1.869
			c0-0.571-0.148-1.093-0.456-1.563C-11.612,40.811-11.967,40.448-12.379,40.192z M-16.752,46.333
			c-1.313,1.06-2.96,1.688-4.95,1.896c-1.303,0.125-2.528,0.032-3.677-0.282c-1.148-0.313-2.078-0.8-2.793-1.46
			c-0.718-0.657-1.112-1.42-1.191-2.272c-0.126-1.309,0.466-2.486,1.774-3.544c1.309-1.063,2.958-1.69,4.946-1.896
			c1.307-0.126,2.528-0.028,3.68,0.281c1.146,0.313,2.079,0.798,2.793,1.459c0.714,0.662,1.108,1.421,1.189,2.278
			C-14.852,44.093-15.444,45.274-16.752,46.333z"/>
		<path d="M-21.313,40.781c-0.942-0.239-1.887-0.153-2.815,0.258c-0.938,0.406-1.609,1.028-2.03,1.858
			c-0.419,0.851-0.448,1.688-0.086,2.516c0.357,0.822,1.02,1.391,1.975,1.69c0.992,0.322,1.991,0.271,3.001-0.162
			c1.012-0.428,1.715-1.098,2.118-2.007c0.4-0.896,0.392-1.745-0.034-2.553C-19.614,41.573-20.321,41.039-21.313,40.781z
			 M-22.747,45.122c-0.195,0.303-0.479,0.514-0.837,0.635c-0.361,0.121-0.694,0.11-0.999-0.033
			c-0.307-0.143-0.495-0.368-0.575-0.677c-0.081-0.312-0.021-0.613,0.174-0.916c0.188-0.296,0.455-0.5,0.805-0.618
			c0.352-0.115,0.678-0.111,0.979,0.014c0.313,0.139,0.514,0.358,0.603,0.671C-22.508,44.511-22.558,44.817-22.747,45.122z
			 M-21.487,43.5c-0.063,0.116-0.16,0.194-0.295,0.249c-0.135,0.049-0.264,0.051-0.388,0.006c-0.271-0.125-0.326-0.326-0.18-0.604
			c0.063-0.112,0.161-0.194,0.289-0.247c0.129-0.05,0.261-0.051,0.386-0.007c0.111,0.044,0.189,0.127,0.229,0.247
			C-21.4,43.266-21.417,43.384-21.487,43.5z"/>
		<path d="M-12.646,37.625c0.103,0.188,0.251,0.325,0.456,0.395c0.205,0.063,0.403,0.046,0.595-0.052
			c0.192-0.098,0.324-0.251,0.396-0.455c0.17-0.5,0.199-1.025,0.088-1.574c-0.112-0.549-0.354-1.035-0.729-1.454
			c-0.376-0.42-0.827-0.712-1.354-0.877c-0.527-0.167-1.058-0.188-1.594-0.071c-0.215,0.046-0.379,0.156-0.497,0.342
			c-0.115,0.184-0.151,0.382-0.107,0.597c0.038,0.215,0.148,0.38,0.336,0.495c0.188,0.118,0.393,0.153,0.604,0.108
			c0.563-0.116,1.041,0.036,1.434,0.469c0.396,0.429,0.501,0.923,0.32,1.482C-12.762,37.235-12.745,37.434-12.646,37.625z"/>
		<path d="M-7.91,35.281c-0.229-1.129-0.729-2.118-1.508-2.979c-0.777-0.866-1.706-1.467-2.786-1.802
			c-1.081-0.335-2.17-0.391-3.271-0.154c-0.25,0.055-0.44,0.188-0.583,0.396c-0.138,0.21-0.181,0.438-0.127,0.688
			c0.058,0.251,0.188,0.445,0.402,0.584s0.446,0.181,0.696,0.126c0.772-0.16,1.55-0.122,2.313,0.113
			c0.771,0.234,1.434,0.664,1.983,1.275c0.554,0.608,0.912,1.313,1.07,2.118c0.158,0.808,0.114,1.571-0.137,2.308
			c-0.066,0.236-0.049,0.473,0.068,0.693c0.114,0.226,0.294,0.375,0.534,0.455c0.239,0.081,0.475,0.063,0.694-0.054
			c0.225-0.117,0.375-0.294,0.455-0.535C-7.743,37.489-7.683,36.411-7.91,35.281z"/>
	</g>
</g>
</svg>
