<?xml version="1.0" encoding="utf-8"?>
<!-- Generator: Adobe Illustrator 16.0.0, SVG Export Plug-In . SVG Version: 6.00 Build 0)  -->
<!DOCTYPE svg PUBLIC "-//W3C//DTD SVG 1.1//EN" "http://www.w3.org/Graphics/SVG/1.1/DTD/svg11.dtd">
<svg version="1.1" id="圖層_1" xmlns="http://www.w3.org/2000/svg" xmlns:xlink="http://www.w3.org/1999/xlink" x="0px" y="0px"
	 width="32.936px" height="32.938px" viewBox="0 0 32.936 32.938" enable-background="new 0 0 32.936 32.938" xml:space="preserve">
<g>
	<path fill="#666666" d="M16.469,0C7.374,0,0,7.375,0,16.47c0,9.092,7.374,16.468,16.469,16.468c9.092,0,16.468-7.376,16.468-16.468
		C32.937,7.375,25.561,0,16.469,0 M26.705,15.539c-0.016,0.163-0.034,0.372-0.081,0.62c-0.126,0.784-0.396,1.542-0.782,2.239
		c-0.184,0.331-1.082,1.593-1.357,1.921c-1.514,1.824-4.049,3.934-8.289,5.979c-0.396,0.188-0.847-0.126-0.799-0.563l0.214-1.923
		c0.034-0.309-0.188-0.584-0.488-0.616c-5.021-0.521-8.896-3.938-8.896-8.07c0-4.499,4.585-8.146,10.24-8.146
		c5.497,0,9.979,3.442,10.229,7.771C26.703,14.869,26.724,15.27,26.705,15.539"/>
	<path fill="#666666" d="M12.067,17.327h-1.979v-4.148c0-0.313-0.188-0.565-0.5-0.565c-0.313,0-0.5,0.257-0.5,0.565v4.279
		c0,0.313,0.397,0.869,0.717,0.869h2.267c0.313,0,0.567-0.188,0.567-0.5C12.635,17.515,12.381,17.327,12.067,17.327"/>
	<path fill="#666666" d="M14.084,12.771c0-0.245-0.198-0.438-0.443-0.438h-0.113c-0.239,0-0.438,0.193-0.438,0.438v4.112
		c0,0.245,0.198,0.443,0.438,0.443h0.113c0.245,0,0.443-0.198,0.443-0.443V12.771z"/>
	<path fill="#666666" d="M18.584,12.611c-0.313,0-0.5,0.259-0.5,0.567v2.613c0,0-2.084-2.953-2.118-2.99
		c-0.108-0.122-0.214-0.196-0.391-0.19c-0.313,0.018-0.491,0.282-0.491,0.596v4.256c0,0.313,0.188,0.563,0.5,0.563
		c0.312,0,0.5-0.254,0.5-0.563v-2.604c0,0,2.396,2.979,2.436,3.016c0.104,0.095,0.039,0.148,0.188,0.149
		c0.313,0.003,0.377-0.271,0.377-0.59v-4.256C19.084,12.865,18.897,12.611,18.584,12.611"/>
	<path fill="#666666" d="M23.262,13.327c0.313,0,0.566-0.188,0.566-0.5c0-0.313-0.259-0.5-0.566-0.5h-2.268
		c-0.313,0-0.91,0.533-0.91,0.852v4.279c0,0.313,0.598,0.869,0.91,0.869h2.268c0.313,0,0.566-0.188,0.566-0.5
		c0-0.313-0.259-0.5-0.566-0.5h-2.178v-1h2.178c0.313,0,0.566-0.688,0.566-1c0-0.313-0.259-1-0.566-1h-2.178v-1H23.262z"/>
</g>
</svg>
