<?xml version="1.0" encoding="utf-8"?>
<!-- Generator: Adobe Illustrator 16.0.0, SVG Export Plug-In . SVG Version: 6.00 Build 0)  -->
<!DOCTYPE svg PUBLIC "-//W3C//DTD SVG 1.1//EN" "http://www.w3.org/Graphics/SVG/1.1/DTD/svg11.dtd">
<svg version="1.1" id="圖層_1" xmlns="http://www.w3.org/2000/svg" xmlns:xlink="http://www.w3.org/1999/xlink" x="0px" y="0px"
	 width="32.936px" height="32.938px" viewBox="0 0 32.936 32.938" enable-background="new 0 0 32.936 32.938" xml:space="preserve">
<g>
	<path fill="#666666" d="M16.461-0.001C7.376-0.001,0,7.376,0,16.461c0,9.1,7.376,16.477,16.461,16.477
		c9.098,0,16.475-7.377,16.475-16.477C32.936,7.365,25.559-0.001,16.461-0.001 M24.664,12.774l0.01,0.521
		c0,5.354-4.08,11.536-11.539,11.536c-2.29,0-4.421-0.671-6.211-1.829c0.311,0.041,0.635,0.063,0.964,0.063
		c1.902,0,3.649-0.651,5.036-1.738c-1.778-0.028-3.265-1.205-3.788-2.813c0.25,0.051,0.502,0.07,0.764,0.07
		c0.371,0,0.608-0.055,0.94-0.145c-1.853-0.373-3.372-2.009-3.372-3.97v-0.052c1,0.304,1.291,0.479,1.955,0.504
		c-1.086-0.727-1.736-1.975-1.736-3.367c0-0.744,0.232-1.446,0.584-2.04c1.989,2.452,5,4.06,8.368,4.23
		c-0.072-0.293-0.093-0.604-0.093-0.929c0-2.229,1.813-4.05,4.054-4.05c1.166,0,2.226,0.494,2.966,1.275
		c0.916-0.184,1.789-0.516,2.574-0.979c-0.301,0.947-0.943,1.739-1.788,2.241c0.823-0.101,1.608-0.321,2.332-0.645
		C26.141,11.488,25.448,12.198,24.664,12.774"/>
</g>
</svg>
