<?xml version="1.0" encoding="utf-8"?>
<!-- Generator: Adobe Illustrator 16.0.0, SVG Export Plug-In . SVG Version: 6.00 Build 0)  -->
<!DOCTYPE svg PUBLIC "-//W3C//DTD SVG 1.1//EN" "http://www.w3.org/Graphics/SVG/1.1/DTD/svg11.dtd">
<svg version="1.1" id="圖層_1" xmlns="http://www.w3.org/2000/svg" xmlns:xlink="http://www.w3.org/1999/xlink" x="0px" y="0px"
	 width="32.936px" height="32.938px" viewBox="0 0 32.936 32.938" enable-background="new 0 0 32.936 32.938" xml:space="preserve">
<path fill="#6F6F6F" stroke="#FFFFFF" stroke-width="3" stroke-miterlimit="10" d="M-86.228,23.682
	c0.021-0.001,0.04-0.004,0.063-0.005c-0.087-0.006-0.183-0.003-0.27-0.009c-0.791-0.047-1.587-0.078-2.391-0.078
	c-19.986,0-36.244,14.541-36.244,32.413c0,8.034,3.271,15.666,9.232,21.617l-3.816,10.176c-0.063,0.165-0.097,0.339-0.104,0.514
	c-0.026,0.524,0.18,1.063,0.565,1.415c0.539,0.489,1.38,0.596,2.021,0.253l10.646-5.679c0.646,0.321,1.294,0.621,1.955,0.906
	c0.229,0.098,0.46,0.185,0.689,0.272c0.436,0.184,0.872,0.354,1.313,0.521c0.286,0.104,0.577,0.193,0.866,0.297
	c0.394,0.133,0.782,0.265,1.179,0.385c0.321,0.099,0.646,0.188,0.977,0.276c0.367,0.103,0.732,0.197,1.104,0.293
	c0.354,0.085,0.696,0.163,1.047,0.233c0.354,0.077,0.709,0.149,1.064,0.222c0.368,0.063,0.737,0.136,1.106,0.188
	c0.342,0.061,0.684,0.104,1.021,0.147c0.389,0.052,0.775,0.103,1.166,0.143c0.326,0.034,0.653,0.063,0.98,0.084
	c0.402,0.032,0.812,0.066,1.22,0.087c0.058,0.002,0.113,0.015,0.172,0.018c-0.014-0.003-0.028-0.012-0.042-0.015
	c0.621,0.029,1.243,0.06,1.868,0.06c19.979,0,36.244-14.541,36.244-32.413C-52.578,38.912-67.451,24.877-86.228,23.682z"/>
<g>
	<path fill="#FFFFFF" d="M-79.098,47.753c-3.896,0-7.065,3.172-7.065,7.065c0,3.899,3.172,7.072,7.065,7.072
		c3.899,0,7.071-3.172,7.071-7.07C-72.027,50.926-75.199,47.753-79.098,47.753z"/>
	<path fill="#FFFFFF" d="M-93.105,50.307c-1.912-2.301-5.08-3.153-7.885-2.12c-2.77,1.021-4.629,3.688-4.629,6.645
		c0,0.36,0.029,0.729,0.086,1.097c0.455,2.922,2.711,5.269,5.611,5.841c0.455,0.09,0.905,0.134,1.357,0.134
		c2.451,0,4.784-1.275,6.078-3.435C-90.937,55.892-91.188,52.615-93.105,50.307z"/>
</g>
<path fill="#FFFFFF" d="M-18.986,88.417c0-15.79-13.682-28.771-30.994-29.958c0.021-0.001,0.036-0.004,0.06-0.005
	c-0.092-0.012-0.181-0.009-0.267-0.015c-0.791-0.051-1.586-0.085-2.391-0.085c-1.736,0-3.442,0.118-5.109,0.353
	c-16.104,2.209-28.479,14.688-28.479,29.71c0,15.02,12.376,27.501,28.479,29.71c1.667,0.229,3.373,0.347,5.109,0.347
	c0.889,0,1.771-0.032,2.653-0.094c-0.016-0.001-0.021-0.002-0.028-0.003c2.839-0.196,5.623-0.706,8.313-1.534l11.143,6.683
	c1.307,0.783,2.965-0.419,2.636-1.896l-2.388-10.746C-23.079,105.171-18.986,97.045-18.986,88.417z"/>
<g>
	<path fill="#6F6F6F" d="M-63.186,81.345c-3.896,0-7.066,3.173-7.066,7.072c0,3.896,3.173,7.066,7.066,7.066
		c3.899,0,7.072-3.173,7.072-7.066C-56.114,84.518-59.287,81.345-63.186,81.345z"/>
	<path fill="#6F6F6F" d="M-41.97,81.345c-3.896,0-7.066,3.173-7.066,7.072c0,3.896,3.174,7.066,7.066,7.066
		c3.9,0,7.072-3.173,7.072-7.066C-34.898,84.518-38.07,81.345-41.97,81.345z"/>
</g>
<path fill="#FFFFFF" d="M84.439,31.346c0.021-0.001,0.04-0.004,0.063-0.005c-0.087-0.006-0.178-0.003-0.27-0.009
	c-0.791-0.047-1.587-0.078-2.391-0.078c-19.986,0-36.244,14.541-36.244,32.413c0,8.034,3.271,15.666,9.232,21.616L51.017,95.46
	c-0.063,0.165-0.097,0.339-0.104,0.514c-0.026,0.524,0.18,1.063,0.565,1.415c0.539,0.489,1.38,0.596,2.021,0.253l10.646-5.679
	c0.646,0.32,1.294,0.621,1.955,0.906c0.229,0.098,0.46,0.185,0.689,0.272c0.436,0.179,0.872,0.354,1.313,0.521
	c0.286,0.104,0.577,0.193,0.866,0.297c0.394,0.133,0.782,0.265,1.179,0.385c0.321,0.099,0.646,0.187,0.977,0.276
	c0.368,0.103,0.732,0.196,1.104,0.293c0.354,0.085,0.696,0.163,1.047,0.233c0.354,0.077,0.709,0.149,1.064,0.222
	c0.368,0.063,0.737,0.136,1.107,0.188c0.341,0.061,0.683,0.104,1.021,0.147c0.389,0.052,0.775,0.103,1.166,0.143
	c0.326,0.034,0.653,0.063,0.981,0.084c0.401,0.032,0.811,0.066,1.219,0.087c0.058,0.002,0.114,0.01,0.172,0.018
	c-0.014-0.008-0.028-0.012-0.042-0.015c0.621,0.029,1.243,0.06,1.868,0.06c19.979,0,36.244-14.541,36.244-32.413
	C118.089,46.576,103.216,32.541,84.439,31.346z"/>
<g>
	<path fill="#6F6F6F" d="M91.569,55.417c-3.896,0-7.065,3.172-7.065,7.065c0,3.899,3.172,7.072,7.065,7.072
		c3.899,0,7.071-3.172,7.071-7.071C98.64,58.59,95.468,55.417,91.569,55.417z"/>
	<path fill="#6F6F6F" d="M77.562,57.971c-1.912-2.301-5.08-3.153-7.885-2.12c-2.769,1.021-4.629,3.688-4.629,6.639
		c0,0.366,0.029,0.735,0.086,1.103c0.455,2.922,2.711,5.269,5.611,5.841c0.455,0.09,0.905,0.134,1.357,0.134
		c2.451,0,4.784-1.277,6.078-3.435C79.73,63.556,79.479,60.279,77.562,57.971z"/>
</g>
<path fill="#FFFFFF" stroke="#6F6F6F" stroke-width="2" stroke-miterlimit="10" d="M151.681,96.081
	c0-15.79-13.682-28.771-30.994-29.958c0.021-0.001,0.036-0.004,0.06-0.005c-0.092-0.012-0.181-0.01-0.267-0.015
	c-0.791-0.051-1.586-0.085-2.391-0.085c-1.736,0-3.442,0.118-5.109,0.353C96.874,68.58,84.498,81.06,84.498,96.081
	c0,15.02,12.376,27.501,28.479,29.71c1.667,0.229,3.373,0.347,5.109,0.347c0.889,0,1.771-0.032,2.65-0.094
	c-0.013-0.001-0.021-0.002-0.025-0.003c2.839-0.196,5.623-0.706,8.313-1.534l11.143,6.683c1.307,0.783,2.965-0.419,2.636-1.896
	l-2.388-10.746C147.588,112.835,151.681,104.709,151.681,96.081z"/>
<g>
	<path fill="#6F6F6F" d="M107.481,89.009c-3.896,0-7.066,3.173-7.066,7.072c0,3.896,3.173,7.066,7.066,7.066
		c3.899,0,7.072-3.173,7.072-7.066C114.553,92.182,111.38,89.009,107.481,89.009z"/>
	<path fill="#6F6F6F" d="M128.697,89.009c-3.896,0-7.066,3.173-7.066,7.072c0,3.896,3.174,7.066,7.066,7.066
		c3.9,0,7.072-3.173,7.072-7.066C135.769,92.182,132.597,89.009,128.697,89.009z"/>
</g>
<g>
	<path fill="#666666" d="M16.469,0C7.373,0,0,7.373,0,16.469s7.373,16.469,16.469,16.469s16.469-7.373,16.469-16.469
		S25.565,0,16.469,0z M26.137,24.833l0.484,2.178c0.038,0.177-0.004,0.354-0.117,0.495c-0.113,0.145-0.292,0.229-0.471,0.229
		c-0.104,0-0.207-0.022-0.304-0.084l-2.311-1.387c-0.563,0.165-1.146,0.271-1.735,0.313v0.001c-0.581,0.038-1.148,0.021-1.713-0.062
		c-3.593-0.493-6.303-3.329-6.303-6.595c0-0.005,0.001-0.01,0.001-0.014c-0.119,0.005-0.235,0.016-0.354,0.016
		c-0.134,0-0.268-0.006-0.396-0.013c0.003,0.001,0.007,0.002,0.009,0.002c-0.013,0-0.025-0.002-0.037-0.003
		c-0.088-0.004-0.175-0.016-0.263-0.021c-0.069-0.005-0.145-0.01-0.21-0.02c-0.083-0.01-0.166-0.021-0.25-0.029
		c-0.074-0.009-0.147-0.021-0.225-0.032c-0.075-0.013-0.155-0.021-0.233-0.039c-0.077-0.017-0.152-0.025-0.229-0.048
		c-0.076-0.017-0.146-0.033-0.225-0.053c-0.081-0.021-0.16-0.041-0.239-0.063c-0.069-0.02-0.14-0.038-0.209-0.061
		c-0.086-0.024-0.17-0.052-0.253-0.082c-0.062-0.021-0.125-0.042-0.186-0.063c-0.101-0.03-0.19-0.069-0.283-0.106
		c-0.049-0.021-0.104-0.039-0.148-0.063c-0.142-0.062-0.275-0.126-0.42-0.19l-2.287,1.221c-0.138,0.074-0.313,0.051-0.434-0.055
		c-0.085-0.075-0.129-0.19-0.124-0.309c0.002-0.036,0.009-0.075,0.021-0.104l0.821-2.188c-1.281-1.271-1.979-2.916-1.979-4.642
		C5.533,9.123,9.025,6,13.317,6c0.178,0,0.35,0.007,0.52,0.016c0.018,0.002,0.038,0.001,0.056,0.002
		c-0.005,0-0.008,0.001-0.013,0.001c4.033,0.257,7.228,3.272,7.229,6.945c0,0.098-0.012,0.188-0.017,0.29
		c0.005,0,0.01-0.001,0.015-0.001c0.163,0,0.328,0.006,0.526,0.019l0.059,0.003c3.84,0.271,6.852,3.188,6.852,6.648
		C28.534,21.792,27.663,23.573,26.137,24.833z"/>
	<path fill="#666666" d="M16.927,12.711c0-0.836-0.682-1.521-1.519-1.521c-0.844,0-1.521,0.687-1.521,1.521
		c0,0.838,0.681,1.52,1.521,1.52C16.244,14.231,16.927,13.549,16.927,12.711z"/>
	<path fill="#666666" d="M10.707,11.285c-0.601,0.219-0.996,0.792-0.996,1.425c0,0.079,0.007,0.158,0.019,0.23
		c0.104,0.627,0.583,1.137,1.205,1.261c0.104,0.019,0.197,0.022,0.293,0.022c0.527,0,1.028-0.271,1.312-0.737
		c0.331-0.551,0.271-1.255-0.14-1.75C11.989,11.247,11.308,11.063,10.707,11.285z"/>
	<path fill="#666666" d="M21.688,13.278l-0.059-0.003c-0.198-0.013-0.363-0.019-0.526-0.019c-0.005,0-0.01,0.001-0.015,0.001
		c-0.371,0-0.747,0.021-1.112,0.076c-3.587,0.486-6.294,3.315-6.302,6.58c0,0.004-0.001,0.009-0.001,0.014
		c0,3.266,2.71,6.102,6.303,6.595c0.563,0.077,1.132,0.101,1.713,0.062V26.58c0.591-0.041,1.174-0.147,1.735-0.313l2.311,1.387
		c0.097,0.062,0.194,0.084,0.304,0.084c0.179,0,0.354-0.085,0.471-0.229c0.113-0.141,0.155-0.318,0.117-0.495l-0.484-2.178
		c1.526-1.266,2.397-3.041,2.397-4.907C28.534,16.466,25.528,13.548,21.688,13.278z M25.764,24.584l-0.104,0.084l0.542,2.438
		c0.012,0.063-0.016,0.107-0.031,0.131c-0.05,0.066-0.146,0.087-0.214,0.045L23.48,25.8l-0.09,0.03
		c-0.556,0.172-1.139,0.273-1.736,0.314v0.001c-0.551,0.036-1.091,0.021-1.611-0.054c-3.389-0.464-5.938-3.116-5.938-6.168
		s2.551-5.704,5.938-6.168c0.351-0.049,0.71-0.073,1.063-0.073c0.151,0,0.313,0.006,0.501,0.021l0.044,0.001v0.001
		c3.619,0.249,6.455,2.979,6.455,6.22C28.105,21.703,27.252,23.4,25.764,24.584z"/>
	<circle fill="#666666" cx="18.825" cy="19.927" r="1.519"/>
	<path fill="#666666" d="M23.381,18.406c-0.835,0-1.521,0.686-1.521,1.521s0.688,1.519,1.521,1.519c0.838,0,1.521-0.681,1.521-1.519
		S24.219,18.406,23.381,18.406z"/>
</g>
</svg>
