<?xml version="1.0" encoding="utf-8"?>
<!-- Generator: Adobe Illustrator 16.0.0, SVG Export Plug-In . SVG Version: 6.00 Build 0)  -->
<!DOCTYPE svg PUBLIC "-//W3C//DTD SVG 1.1//EN" "http://www.w3.org/Graphics/SVG/1.1/DTD/svg11.dtd">
<svg version="1.1" id="圖層_1" xmlns="http://www.w3.org/2000/svg" xmlns:xlink="http://www.w3.org/1999/xlink" x="0px" y="0px"
	 width="32.936px" height="32.938px" viewBox="0 0 32.936 32.938" enable-background="new 0 0 32.936 32.938" xml:space="preserve">
<g>
	<g>
		<polygon fill="#666666" points="8.652,17.683 9.958,17.683 9.958,24.751 11.193,24.751 11.193,17.683 12.524,17.683 
			12.524,16.526 8.652,16.526 		"/>
		<path fill="#666666" d="M19.097,18.548c-0.408,0-0.79,0.223-1.146,0.665v-2.688h-1.11v8.229h1.11v-0.6
			c0.365,0.464,0.752,0.685,1.146,0.685c0.441,0,0.739-0.233,0.887-0.688c0.074-0.261,0.113-0.669,0.113-1.229v-2.44
			c0-0.58-0.039-0.981-0.113-1.229C19.836,18.78,19.538,18.548,19.097,18.548z M18.986,22.999c0,0.554-0.158,0.827-0.479,0.827
			c-0.188,0-0.368-0.094-0.554-0.273v-3.734c0.186-0.185,0.365-0.271,0.554-0.271c0.318,0,0.479,0.284,0.479,0.837V22.999z"/>
		<path fill="#666666" d="M14.767,23.305c-0.246,0.349-0.479,0.521-0.702,0.521c-0.146,0-0.229-0.094-0.26-0.267
			c-0.011-0.035-0.011-0.171-0.011-0.431v-4.51h-1.109v4.846c0,0.433,0.036,0.726,0.104,0.911c0.105,0.312,0.354,0.457,0.716,0.457
			c0.408,0,0.827-0.247,1.269-0.753v0.668h1.111V18.62H14.77L14.767,23.305L14.767,23.305z"/>
		<path fill="#666666" d="M15.721,12.961c0.36,0,0.535-0.286,0.535-0.859V9.496c0-0.572-0.175-0.857-0.535-0.857
			c-0.362,0-0.536,0.285-0.536,0.857V12.1C15.185,12.675,15.359,12.961,15.721,12.961z"/>
		<path fill="#666666" d="M16.469,0C7.374,0,0,7.374,0,16.469s7.374,16.469,16.469,16.469s16.469-7.374,16.469-16.469
			S25.564,0,16.469,0z M18.3,7.702h1.119v4.561c0,0.263,0,0.399,0.015,0.438c0.023,0.174,0.112,0.263,0.263,0.263
			c0.229,0,0.466-0.174,0.708-0.525V7.702h1.122v6.188h-1.122v-0.67c-0.44,0.512-0.866,0.76-1.275,0.76
			c-0.362,0-0.61-0.146-0.729-0.459c-0.062-0.188-0.1-0.479-0.1-0.921V7.702L18.3,7.702z M14.063,9.721
			c0-0.661,0.112-1.146,0.354-1.458c0.311-0.424,0.748-0.636,1.308-0.636c0.563,0,0.998,0.212,1.312,0.636
			c0.232,0.313,0.351,0.797,0.351,1.458v2.169c0,0.659-0.112,1.147-0.351,1.456c-0.313,0.424-0.744,0.634-1.312,0.634
			c-0.56,0-0.997-0.21-1.308-0.634c-0.238-0.309-0.354-0.798-0.354-1.456V9.721z M11.062,5.585l0.884,3.265l0.854-3.265h1.259
			l-1.497,4.939v3.366h-1.244V10.53c-0.106-0.597-0.355-1.47-0.761-2.63c-0.263-0.771-0.535-1.545-0.798-2.313L11.062,5.585
			L11.062,5.585z M25.334,25.292c-0.229,0.977-1.024,1.691-1.986,1.806c-2.278,0.255-4.584,0.256-6.88,0.255
			c-2.296,0.001-4.604,0-6.88-0.255c-0.962-0.108-1.762-0.828-1.985-1.806c-0.315-1.396-0.315-2.91-0.315-4.349
			c0-1.434,0.004-2.945,0.318-4.344c0.229-0.977,1.023-1.698,1.985-1.805c2.278-0.255,4.585-0.257,6.881-0.255
			c2.296-0.002,4.604,0,6.88,0.255c0.963,0.104,1.762,0.828,1.987,1.805c0.319,1.396,0.313,2.91,0.313,4.344
			C25.655,22.382,25.655,23.9,25.334,25.292z"/>
		<path fill="#666666" d="M22.633,18.548c-0.567,0-1.009,0.209-1.329,0.629c-0.235,0.31-0.344,0.789-0.344,1.443v2.146
			c0,0.651,0.121,1.134,0.354,1.44c0.321,0.419,0.769,0.628,1.351,0.628c0.574,0,1.029-0.225,1.342-0.664
			c0.135-0.197,0.224-0.42,0.26-0.666c0.011-0.11,0.023-0.357,0.023-0.715v-0.162h-1.138c0,0.439-0.016,0.688-0.021,0.752
			c-0.063,0.297-0.229,0.439-0.496,0.439c-0.381,0-0.567-0.276-0.567-0.85v-1.087h2.227V20.62c0-0.655-0.11-1.141-0.35-1.444
			C23.633,18.757,23.191,18.548,22.633,18.548z M23.177,20.965h-1.11v-0.567c0-0.563,0.188-0.851,0.563-0.851
			c0.367,0,0.554,0.284,0.554,0.851L23.177,20.965L23.177,20.965z"/>
	</g>
</g>
</svg>
