<?xml version="1.0" encoding="utf-8"?>
<!-- Generator: Adobe Illustrator 16.0.0, SVG Export Plug-In . SVG Version: 6.00 Build 0)  -->
<!DOCTYPE svg PUBLIC "-//W3C//DTD SVG 1.1//EN" "http://www.w3.org/Graphics/SVG/1.1/DTD/svg11.dtd">
<svg version="1.1" id="圖層_1" xmlns="http://www.w3.org/2000/svg" xmlns:xlink="http://www.w3.org/1999/xlink" x="0px" y="0px"
	 width="32.936px" height="32.938px" viewBox="0 0 32.936 32.938" enable-background="new 0 0 32.936 32.938" xml:space="preserve">
<g>
	<g>
		<g>
			<path fill="#666666" d="M16.698,0.465c-8.966,0-16.232,7.27-16.232,16.238c0,8.965,7.271,16.231,16.232,16.231
				c8.969,0,16.236-7.27,16.236-16.231C32.936,7.734,25.665,0.465,16.698,0.465z M17.966,21.092
				c-1.188-0.092-1.688-0.678-2.615-1.246c-0.512,2.684-1.135,5.258-2.983,6.598c-0.571-4.053,0.839-7.096,1.491-10.331
				c-1.113-1.88,0.139-5.658,2.486-4.729c2.896,1.146-2.51,6.987,1.122,7.719c3.789,0.76,5.337-6.578,2.987-8.966
				c-3.397-3.445-9.889-0.079-9.086,4.854c0.19,1.204,1.438,1.568,0.492,3.235c-2.172-0.479-2.817-2.191-2.735-4.479
				c0.134-3.74,3.356-6.358,6.599-6.726c4.092-0.459,7.938,1.502,8.462,5.354C24.785,16.722,22.338,21.429,17.966,21.092z"/>
		</g>
	</g>
</g>
</svg>
