<?xml version="1.0" encoding="utf-8"?>
<!-- Generator: Adobe Illustrator 16.0.0, SVG Export Plug-In . SVG Version: 6.00 Build 0)  -->
<!DOCTYPE svg PUBLIC "-//W3C//DTD SVG 1.1//EN" "http://www.w3.org/Graphics/SVG/1.1/DTD/svg11.dtd">
<svg version="1.1" id="圖層_1" xmlns="http://www.w3.org/2000/svg" xmlns:xlink="http://www.w3.org/1999/xlink" x="0px" y="0px"
	 width="32.936px" height="32.938px" viewBox="0 0 32.936 32.938" enable-background="new 0 0 32.936 32.938" xml:space="preserve">
<g>
	<path fill="#666666" d="M21.54,9.56H11.86c-1.545,0-2.469,0.801-2.469,2.347v9.682c0,1.546,0.924,2.977,2.469,2.977h9.684
		c1.545,0,2.852-1.431,2.852-2.977v-9.682C24.392,10.36,23.084,9.56,21.54,9.56 M16.7,21.776c-2.773,0-5.031-2.258-5.031-5.027
		c0-2.772,2.258-5.03,5.031-5.03c2.771,0,5.026,2.258,5.026,5.03C21.731,19.518,19.474,21.776,16.7,21.776 M21.894,12.755
		c-0.657,0-1.188-0.532-1.188-1.189c0-0.652,0.529-1.188,1.188-1.188c0.655,0,1.191,0.534,1.191,1.188
		C23.084,12.222,22.548,12.755,21.894,12.755"/>
	<path fill="#666666" d="M16.7,13.841c-1.604,0-2.904,1.304-2.904,2.904c0,1.604,1.304,2.902,2.904,2.902
		c1.602,0,2.901-1.303,2.901-2.902C19.605,15.146,18.302,13.841,16.7,13.841"/>
	<path fill="#666666" d="M16.698,0.465c-8.967,0-16.232,7.271-16.232,16.236c0,8.965,7.27,16.231,16.232,16.231
		c8.97,0,16.236-7.27,16.236-16.231C32.935,7.736,25.666,0.465,16.698,0.465 M26.392,21.584c0,2.72-2.135,4.977-4.852,4.977H11.86
		c-2.717,0-4.469-2.257-4.469-4.977v-9.681c0-2.717,1.752-5.348,4.469-5.348h9.684c2.717,0,4.852,2.631,4.852,5.348L26.392,21.584
		L26.392,21.584z"/>
</g>
</svg>
