<?xml version="1.0" encoding="utf-8"?>
<!-- Generator: Adobe Illustrator 19.0.0, SVG Export Plug-In . SVG Version: 6.00 Build 0)  -->
<svg version="1.1" id="圖層_1" xmlns="http://www.w3.org/2000/svg" xmlns:xlink="http://www.w3.org/1999/xlink" x="0px" y="0px"
	 viewBox="-281 405 32.9 32.9" style="enable-background:new -281 405 32.9 32.9;" xml:space="preserve">
<style type="text/css">
	.st0{fill:#666666;}
	.st1{fill:#FFFFFF;}
</style>
<g>
	<path class="st0" d="M-253.1,437.9H-276c-2.8,0-5-2.3-5-5V410c0-2.8,2.3-5,5-5h22.9c2.8,0,5,2.3,5,5v22.9
		C-248.1,435.6-250.3,437.9-253.1,437.9z"/>
</g>
<g>
	<path class="st1" d="M-256.1,420.2l-3.7,3.7c-2.1,2.1-5.4,2.1-7.5,0c-0.3-0.3-0.6-0.7-0.8-1.1l1.7-1.7c0.1-0.1,0.2-0.1,0.3-0.2
		c0.1,0.4,0.3,0.8,0.7,1.1c1,1,2.7,1,3.7,0l3.7-3.7c1-1,1-2.7,0-3.7c-1-1-2.7-1-3.7,0l-1.3,1.3c-1.1-0.4-2.2-0.5-3.4-0.4l2.8-2.8
		c2.1-2.1,5.4-2.1,7.5,0C-254.1,414.8-254.1,418.1-256.1,420.2z M-266,426.3l-1.3,1.3c-1,1-2.7,1-3.7,0c-1-1-1-2.7,0-3.7l3.7-3.7
		c1-1,2.7-1,3.7,0c0.3,0.3,0.5,0.7,0.7,1.1c0.1-0.1,0.2-0.1,0.3-0.2l1.7-1.7c-0.2-0.4-0.5-0.7-0.8-1.1c-2.1-2.1-5.4-2.1-7.5,0
		l-3.7,3.7c-2.1,2.1-2.1,5.4,0,7.5c2.1,2.1,5.4,2.1,7.5,0l2.8-2.8C-263.8,426.9-264.9,426.8-266,426.3z"/>
</g>
</svg>
