<?xml version="1.0" encoding="utf-8"?>
<!-- Generator: Adobe Illustrator 19.0.0, SVG Export Plug-In . SVG Version: 6.00 Build 0)  -->
<svg version="1.1" id="圖層_1" xmlns="http://www.w3.org/2000/svg" xmlns:xlink="http://www.w3.org/1999/xlink" x="0px" y="0px"
	 viewBox="-281 405 32.9 32.9" style="enable-background:new -281 405 32.9 32.9;" xml:space="preserve">
<style type="text/css">
	.st0{fill:#666666;}
	.st1{fill:#FFFFFF;}
</style>
<g>
	<path class="st0" d="M-253.1,437.9H-276c-2.8,0-5-2.3-5-5V410c0-2.8,2.3-5,5-5h22.9c2.8,0,5,2.3,5,5v22.9
		C-248.1,435.6-250.3,437.9-253.1,437.9z"/>
	<ellipse class="st1" cx="-264.6" cy="421.1" rx="13.9" ry="12.9"/>
</g>
<g>
	<path class="st0" d="M-264.5,405c-9.1,0-16.5,7.4-16.5,16.5c0,9.1,7.4,16.5,16.5,16.5c9.1,0,16.5-7.4,16.5-16.5
		C-248.1,412.3-255.4,405-264.5,405 M-260.3,421.3h-2.9v10h-4v-10h-2V418l2.5,0l0-2.1c0-2.8,0.8-4.6,4-4.6h2.5v4h-1.5
		c-1.3,0-1.5,0.1-1.5,1v2h3.2L-260.3,421.3z"/>
</g>
</svg>
