<?xml version="1.0" encoding="utf-8"?>
<!-- Generator: Adobe Illustrator 19.0.0, SVG Export Plug-In . SVG Version: 6.00 Build 0)  -->
<svg version="1.1" id="圖層_1" xmlns="http://www.w3.org/2000/svg" xmlns:xlink="http://www.w3.org/1999/xlink" x="0px" y="0px"
	 viewBox="-281 405 32.9 32.9" style="enable-background:new -281 405 32.9 32.9;" xml:space="preserve">
<style type="text/css">
	.st0{fill:#666666;}
	.st1{fill:#FFFFFF;}
</style>
<g>
	<path class="st0" d="M-253.1,437.9H-276c-2.8,0-5-2.3-5-5V410c0-2.8,2.3-5,5-5h22.9c2.8,0,5,2.3,5,5v22.9
		C-248.1,435.6-250.3,437.9-253.1,437.9z"/>
	<circle class="st1" cx="-264.5" cy="421.4" r="15.3"/>
</g>
<g>
	<path class="st0" d="M-264.5,405c-9.1,0-16.5,7.4-16.5,16.5c0,9.1,7.4,16.5,16.5,16.5c9.1,0,16.5-7.4,16.5-16.5
		C-248.1,412.3-255.4,405-264.5,405 M-254.3,420.5c0,0.2,0,0.4-0.1,0.6c-0.1,0.8-0.4,1.5-0.8,2.2c-0.2,0.3-1.1,1.6-1.4,1.9
		c-1.5,1.8-4,3.9-8.3,6c-0.4,0.2-0.8-0.1-0.8-0.6l0.2-1.9c0-0.3-0.2-0.6-0.5-0.6c-5-0.5-8.9-3.9-8.9-8.1c0-4.5,4.6-8.1,10.2-8.1
		c5.5,0,10,3.4,10.2,7.8C-254.3,419.8-254.3,420.2-254.3,420.5"/>
	<path class="st0" d="M-268.9,422.3h-2v-4.1c0-0.3-0.2-0.6-0.5-0.6c-0.3,0-0.5,0.3-0.5,0.6v4.3c0,0.3,0.4,0.9,0.7,0.9h2.3
		c0.3,0,0.6-0.2,0.6-0.5C-268.4,422.5-268.6,422.3-268.9,422.3"/>
	<path class="st0" d="M-266.9,417.7c0-0.2-0.2-0.4-0.4-0.4h-0.1c-0.2,0-0.4,0.2-0.4,0.4v4.1c0,0.2,0.2,0.4,0.4,0.4h0.1
		c0.2,0,0.4-0.2,0.4-0.4V417.7z"/>
	<path class="st0" d="M-262.4,417.6c-0.3,0-0.5,0.3-0.5,0.6v2.6c0,0-2.1-3-2.1-3c-0.1-0.1-0.2-0.2-0.4-0.2c-0.3,0-0.5,0.3-0.5,0.6
		v4.3c0,0.3,0.2,0.6,0.5,0.6c0.3,0,0.5-0.3,0.5-0.6v-2.6c0,0,2.4,3,2.4,3c0.1,0.1,0,0.1,0.2,0.1c0.3,0,0.4-0.3,0.4-0.6v-4.3
		C-261.9,417.8-262.1,417.6-262.4,417.6"/>
	<path class="st0" d="M-257.7,418.3c0.3,0,0.6-0.2,0.6-0.5c0-0.3-0.3-0.5-0.6-0.5h-2.3c-0.3,0-0.9,0.5-0.9,0.9v4.3
		c0,0.3,0.6,0.9,0.9,0.9h2.3c0.3,0,0.6-0.2,0.6-0.5c0-0.3-0.3-0.5-0.6-0.5h-2.2v-1h2.2c0.3,0,0.6-0.7,0.6-1c0-0.3-0.3-1-0.6-1h-2.2
		v-1H-257.7z"/>
</g>
</svg>
