<?xml version="1.0" encoding="utf-8"?>
<!-- Generator: Adobe Illustrator 16.0.0, SVG Export Plug-In . SVG Version: 6.00 Build 0)  -->
<!DOCTYPE svg PUBLIC "-//W3C//DTD SVG 1.1//EN" "http://www.w3.org/Graphics/SVG/1.1/DTD/svg11.dtd">
<svg version="1.1" id="圖層_1" xmlns="http://www.w3.org/2000/svg" xmlns:xlink="http://www.w3.org/1999/xlink" x="0px" y="0px"
	 width="306px" height="84.422px" viewBox="0 0 306 84.422" enable-background="new 0 0 306 84.422" xml:space="preserve">
<g>
	<path fill="#717071" d="M2.447,0.01h11.264c4.531,0,8.015,0.543,10.449,1.629c2.434,1.086,4.356,2.755,5.768,5.005
		c1.412,2.251,2.117,4.75,2.117,7.498c0,2.565-0.618,4.901-1.855,7.007c-1.236,2.107-3.054,3.815-5.449,5.123
		c2.969,1.021,5.253,2.219,6.854,3.592s2.846,3.036,3.737,4.986c0.891,1.949,1.337,4.062,1.337,6.34
		c0,4.632-1.678,8.551-5.031,11.757c-3.354,3.207-7.853,4.81-13.498,4.81H2.447V0.01z M8.04,5.663v18.491h3.27
		c3.97,0,6.89-0.374,8.759-1.119c1.867-0.746,3.348-1.923,4.438-3.533s1.635-3.395,1.635-5.358c0-2.643-0.915-4.717-2.744-6.223
		c-1.83-1.504-4.742-2.257-8.739-2.257H8.04z M8.04,29.962v22.142h7.081c4.177,0,7.237-0.413,9.184-1.236
		c1.945-0.824,3.508-2.113,4.688-3.867c1.181-1.753,1.771-3.65,1.771-5.693c0-2.564-0.83-4.801-2.489-6.712
		c-1.659-1.911-3.94-3.22-6.844-3.926c-1.946-0.471-5.333-0.707-10.16-0.707H8.04z"/>
	<path fill="#717071" d="M82.657,43.585l4.583,2.435c-1.503,2.984-3.239,5.392-5.209,7.223c-1.971,1.833-4.186,3.226-6.648,4.181
		s-5.25,1.434-8.359,1.434c-6.895,0-12.285-2.283-16.174-6.851c-3.887-4.567-5.831-9.729-5.831-15.487
		c0-5.417,1.646-10.246,4.937-14.486c4.174-5.391,9.759-8.086,16.758-8.086c7.205,0,12.959,2.762,17.261,8.283
		c3.059,3.9,4.613,8.768,4.665,14.604H50.611c0.104,4.961,1.672,9.029,4.706,12.201c3.033,3.172,6.78,4.759,11.239,4.759
		c2.152,0,4.245-0.379,6.281-1.136c2.034-0.754,3.765-1.758,5.191-3.01C79.455,48.396,80.998,46.375,82.657,43.585z M82.657,32.083
		c-0.726-2.93-1.782-5.274-3.17-7.026c-1.388-1.754-3.222-3.167-5.503-4.241c-2.282-1.073-4.68-1.609-7.194-1.609
		c-4.149,0-7.714,1.348-10.695,4.044c-2.179,1.962-3.825,4.907-4.938,8.833H82.657z"/>
	<path fill="#717071" d="M140.883,15.045v42.712h-5.359v-7.342c-2.279,2.802-4.836,4.907-7.672,6.32
		c-2.836,1.414-5.938,2.121-9.303,2.121c-5.982,0-11.09-2.193-15.324-6.577c-4.234-4.382-6.351-9.716-6.351-15.996
		c0-6.15,2.136-11.411,6.409-15.782c4.272-4.371,9.412-6.556,15.42-6.556c3.471,0,6.609,0.746,9.42,2.238
		c2.81,1.492,5.275,3.729,7.4,6.713v-7.852H140.883z M119.15,19.246c-3.025,0-5.82,0.752-8.381,2.256
		c-2.561,1.503-4.598,3.614-6.11,6.333s-2.27,5.594-2.27,8.625c0,3.008,0.763,5.883,2.288,8.627c1.526,2.745,3.576,4.882,6.15,6.411
		c2.572,1.53,5.334,2.295,8.283,2.295c2.975,0,5.794-0.758,8.459-2.275c2.663-1.517,4.713-3.568,6.148-6.156
		c1.436-2.589,2.154-5.503,2.154-8.745c0-4.94-1.611-9.07-4.831-12.392C127.822,20.907,123.857,19.246,119.15,19.246z"/>
	<path fill="#717071" d="M152.42,15.045h5.438v19.943c0,4.868,0.26,8.217,0.778,10.05c0.778,2.617,2.263,4.685,4.454,6.201
		c2.191,1.519,4.804,2.278,7.838,2.278s5.608-0.739,7.723-2.219c2.113-1.479,3.572-3.422,4.376-5.83
		c0.544-1.648,0.817-5.143,0.817-10.481V15.045h5.555v20.963c0,5.888-0.68,10.325-2.039,13.309c-1.36,2.984-3.406,5.319-6.138,7.007
		c-2.732,1.688-6.157,2.532-10.274,2.532s-7.555-0.844-10.313-2.532c-2.758-1.688-4.816-4.044-6.176-7.066
		c-1.359-3.023-2.039-7.57-2.039-13.642V15.045z"/>
	<path fill="#717071" d="M206.217-0.814h5.438v15.86h8.623v4.75h-8.623v37.962h-5.438V19.795h-7.418v-4.75h7.418V-0.814z"/>
	<path fill="#717071" d="M223.891,15.444h5.749l14.523,33.717l14.104-33.717h5.787l-25.209,64.803h-5.744l8.136-24.333
		L223.891,15.444z"/>
</g>
<g>
	<g>
		<path fill="#717071" d="M302.878,25.403c1.084,0,1.626,0.542,1.626,1.626s-0.542,1.625-1.626,1.625h-14.062
			c0.352,0.488,0.718,0.881,1.097,1.179c0.786,0.705,1.978,1.437,3.577,2.194c1.219,0.596,2.668,1.152,4.349,1.666
			c1.436,0.461,2.926,0.84,4.471,1.139c1.138,0.189,1.869,0.406,2.194,0.65c0.217,0.298,0.325,0.677,0.325,1.138
			c0,1.192-0.597,1.788-1.788,1.788c-0.543,0-1.694-0.244-3.455-0.731c-2.032-0.542-3.848-1.165-5.445-1.869
			c-1.734-0.731-3.076-1.396-4.023-1.991c-1.247-0.787-2.263-1.599-3.049-2.439c-0.243-0.243-0.461-0.5-0.65-0.771
			c-1.057,1.545-2.817,2.953-5.283,4.227c-2.385,1.301-5.771,2.506-10.16,3.617c-0.949,0.189-1.531,0.284-1.748,0.284
			c-1.192,0-1.788-0.649-1.788-1.95c0-0.84,0.325-1.383,0.976-1.626c4.524-0.948,7.87-1.925,10.038-2.927
			c2.087-0.92,3.631-1.977,4.634-3.17c0.107-0.135,0.203-0.27,0.284-0.406h-13.98c-1.084,0-1.626-0.541-1.626-1.625
			s0.542-1.626,1.626-1.626h14.956v-1.95c0-1.193,0.596-1.789,1.788-1.789s1.788,0.596,1.788,1.789v1.95H302.878z M277.843,0.206
			c0.298,0,0.677,0.108,1.139,0.325c0.46,0.379,0.894,0.759,1.3,1.138c0.434,0.407,0.976,1.016,1.626,1.829
			c0.107,0.298,0.162,0.609,0.162,0.935c0,0.244-0.04,0.475-0.121,0.691h8.575c0.243-0.352,0.474-0.677,0.69-0.975
			c0.704-1.057,1.342-2.154,1.91-3.292c0.298-0.433,0.731-0.65,1.301-0.65c0.433,0,0.813,0.163,1.138,0.488s0.488,0.718,0.488,1.178
			c0,0.325-0.109,0.637-0.325,0.935c-0.407,0.759-0.854,1.49-1.342,2.194c-0.027,0.027-0.055,0.068-0.081,0.122h8.413
			c0.976,0,1.463,0.475,1.463,1.422c0,1.084-0.487,1.626-1.463,1.626h-14.794v3.414h13.168c0.976,0,1.463,0.488,1.463,1.463
			c0,0.975-0.487,1.463-1.463,1.463h-13.168v3.576h14.956c1.002,0,1.504,0.487,1.504,1.463c0,1.084-0.502,1.625-1.504,1.625H269.39
			c-0.949,0-1.423-0.541-1.423-1.625c0-0.976,0.474-1.463,1.423-1.463h15.118v-3.576h-13.167c-0.976,0-1.464-0.488-1.464-1.463
			c0-0.976,0.488-1.463,1.464-1.463h13.167V8.171h-14.793c-0.976,0-1.463-0.542-1.463-1.626c0-0.948,0.487-1.422,1.463-1.422h9.348
			c-0.434-0.542-0.813-0.975-1.139-1.3c-0.298-0.325-0.649-0.664-1.057-1.016c-0.325-0.379-0.487-0.745-0.487-1.097
			C276.38,0.707,276.867,0.206,277.843,0.206z"/>
		<path fill="#717071" d="M285.972,53.657c1.083,0,1.625,0.487,1.625,1.463v1.788h15.77c0.975,0,1.463,0.434,1.463,1.301
			c0,0.976-0.488,1.463-1.463,1.463h-10.567v2.439h8.454c1.517,0,2.275,0.704,2.275,2.113v3.941c0,1.382-0.759,2.072-2.275,2.072
			h-10.079v3.374c2.275-0.271,3.766-0.501,4.47-0.69c1.652-0.299,3.848-0.977,6.584-2.033c1.084,0,1.626,0.597,1.626,1.789
			c0,0.568-0.38,1.002-1.138,1.301c-1.6,0.596-3.333,1.097-5.202,1.503c-1.301,0.271-3.414,0.528-6.34,0.772v0.365
			c0,1.139,0.284,1.843,0.854,2.113c0.813,0.299,2.262,0.447,4.349,0.447c2.194,0,3.752-0.055,4.673-0.162
			c0.569-0.055,0.936-0.203,1.098-0.447c0.271-0.244,0.406-1.07,0.406-2.479c0.055-0.922,0.542-1.409,1.463-1.463
			c0.921,0.08,1.409,0.689,1.464,1.828c0,0.84-0.082,1.68-0.244,2.52c-0.189,1.192-0.745,2.019-1.666,2.479
			c-0.786,0.433-2.859,0.65-6.219,0.65c-3.738,0-6.177-0.271-7.315-0.813c-1.192-0.758-1.788-2.168-1.788-4.227v-6.828h-10.729
			v2.439h7.479c0.866,0,1.301,0.434,1.301,1.301c0,0.975-0.435,1.463-1.301,1.463h-7.479v3.17c0.325-0.027,0.623-0.055,0.895-0.082
			c2.52-0.298,4.66-0.623,6.421-0.975c0.244-0.109,0.461-0.163,0.65-0.163c0.813,0.026,1.246,0.42,1.301,1.179
			c-0.027,0.731-0.353,1.219-0.976,1.463c-1.571,0.434-3.645,0.826-6.218,1.179c-1.925,0.353-4.295,0.65-7.112,0.895
			c-0.705-0.055-1.084-0.597-1.138-1.626c0-0.84,0.379-1.328,1.138-1.463c0.758-0.027,1.463-0.068,2.113-0.122v-8.657h-2.764
			c-0.136,1.897-0.366,3.632-0.691,5.203c-0.461,2.113-1.043,3.955-1.747,5.527c-0.271,0.676-0.705,1.016-1.301,1.016
			c-1.03-0.055-1.571-0.556-1.625-1.504c0.839-2.682,1.476-5.066,1.91-7.152c0.46-2.493,0.69-5.256,0.69-8.291v-5.04
			c0-2.059,1.083-3.089,3.251-3.089h12.192V55.12C284.508,54.145,284.996,53.657,285.972,53.657z M283.695,45.041
			c0.867,0,1.301,0.434,1.301,1.301c0,0.975-0.434,1.463-1.301,1.463h-14.631c-0.867,0-1.301-0.488-1.301-1.463
			c0-0.867,0.434-1.301,1.301-1.301H283.695z M270.527,49.268h11.217c1.409,0,2.114,0.597,2.114,1.789v2.967
			c0,1.084-0.488,1.625-1.464,1.625c-0.867,0-1.3-0.541-1.3-1.625v-1.626c0-0.46-0.218-0.69-0.65-0.69h-3.82
			c0.541,0.704,1.057,1.477,1.544,2.316c0.136,0.298,0.203,0.555,0.203,0.771c0,0.867-0.501,1.301-1.504,1.301
			c-0.271,0-0.542-0.095-0.813-0.285c-0.597-1.029-1.246-2.018-1.951-2.967c-0.108-0.297-0.162-0.5-0.162-0.609
			c0-0.217,0.014-0.393,0.041-0.527h-2.154c-0.325,0-0.487,0.23-0.487,0.69v1.788c0,1.084-0.488,1.625-1.464,1.625
			c-0.867,0-1.3-0.541-1.3-1.625v-3.129C268.577,49.864,269.227,49.268,270.527,49.268z M271.95,67.638h7.355v-2.926h-7.315v0.325
			C271.99,65.958,271.977,66.825,271.95,67.638z M279.306,62.111v-2.439h-6.137c-0.786,0-1.179,0.394-1.179,1.179v1.261H279.306z
			 M289.873,62.111v-2.439h-7.641v2.439H289.873z M282.232,64.712v2.926h7.641v-2.926H282.232z M303.854,45.041
			c0.867,0,1.301,0.434,1.301,1.301c0,0.975-0.434,1.463-1.301,1.463h-15.769c-0.868,0-1.301-0.488-1.301-1.463
			c0-0.867,0.433-1.301,1.301-1.301H303.854z M289.873,49.268h12.029c1.409,0,2.113,0.597,2.113,1.789v2.764
			c0,1.084-0.487,1.625-1.463,1.625c-0.867,0-1.3-0.541-1.3-1.625v-1.423c0-0.46-0.218-0.69-0.65-0.69h-4.227
			c0.704,0.704,1.354,1.477,1.95,2.316c0.108,0.298,0.163,0.555,0.163,0.771c0,0.867-0.488,1.301-1.464,1.301
			c-0.271,0-0.542-0.095-0.813-0.285c-0.759-1.029-1.571-2.018-2.438-2.967c-0.108-0.297-0.162-0.5-0.162-0.609
			c0-0.217,0.013-0.393,0.04-0.527h-2.479c-0.325,0-0.488,0.23-0.488,0.69v1.626c0,1.084-0.487,1.625-1.463,1.625
			c-0.867,0-1.301-0.541-1.301-1.625v-2.967C287.922,49.864,288.572,49.268,289.873,49.268z M292.799,64.712v2.926h6.665
			c0.759,0,1.139-0.419,1.139-1.26v-0.325c0-0.895-0.38-1.341-1.139-1.341H292.799z"/>
	</g>
</g>
<g>
	<g>
		<path fill="#717071" d="M4.49,68.78c-0.046,1.754-0.233,3.344-0.56,4.768L2.987,73.29c0.314-1.251,0.506-2.819,0.572-4.701
			L4.49,68.78z M7.845,70.363l-0.71,0.743c-0.287-0.661-0.581-1.182-0.883-1.563v11.948H5.263v-17.03h0.989v3.595
			C7.027,69.016,7.558,69.784,7.845,70.363z M14.394,77.801l-0.701,0.706c-0.854-1.005-1.552-1.755-2.093-2.251v5.255h-1.001v-5.579
			c-0.855,1.342-1.793,2.53-2.813,3.567l-0.63-0.734c1.213-1.208,2.343-2.674,3.383-4.396H8.235v-5.313h2.363v-1.744H7.995v-0.916
			h2.604v-1.888H11.6v1.888h2.543v0.916H11.6v1.744h2.304v5.313H11.6v0.82C12.842,76.192,13.772,77.063,14.394,77.801z
			 M10.599,73.472v-3.5H9.228v3.5H10.599z M12.95,73.472v-3.5H11.6v3.5H12.95z M20.28,77.926h-3.675l0.632,0.543
			c-1.215,1.354-2.326,2.355-3.334,3.004l-0.742-0.658c1.056-0.687,2.127-1.65,3.215-2.889h-1.433v-7.954h5.337V77.926z
			 M20.542,64.937c-0.127,1.704-0.249,2.775-0.365,3.214c-0.118,0.438-0.35,0.717-0.692,0.835s-0.872,0.16-1.587,0.129l-0.25-0.915
			c0.381,0.025,0.684,0.038,0.91,0.038c0.287,0,0.49-0.098,0.613-0.291c0.119-0.194,0.229-0.899,0.328-2.112h-1.781
			c-0.328,1.69-1.238,2.908-2.734,3.651l-0.631-0.725c1.455-0.73,2.221-1.706,2.293-2.927h-2.053v-0.897H20.542z M19.33,72.28
			v-1.373h-3.403v1.373H19.33z M19.33,74.578v-1.421h-3.403v1.421H19.33z M19.33,77v-1.497h-3.403V77H19.33z M21.013,80.929
			l-0.842,0.621c-0.594-0.84-1.346-1.674-2.252-2.5l0.739-0.639C19.641,79.289,20.423,80.128,21.013,80.929z"/>
		<path fill="#717071" d="M60.148,69.715h-3.835c-0.733,3.128-1.862,5.543-3.384,7.247c2.269,1.271,4.313,2.543,6.127,3.814
			l-0.711,0.858c-1.589-1.208-3.642-2.505-6.157-3.891c-1.969,1.697-5.087,2.966-9.353,3.806l-0.53-1.03
			c3.911-0.687,6.846-1.8,8.8-3.339c-2.041-1.124-4.128-2.123-6.257-2.993c0.888-1.449,1.702-2.94,2.442-4.473h-4.926v-1.049h5.417
			c0.594-1.284,1.194-2.737,1.804-4.358l1.129,0.334c-0.653,1.583-1.221,2.924-1.701,4.024h6.299
			c0.141-0.521,0.248-1.056,0.32-1.603l1.151,0.19c-0.06,0.4-0.151,0.871-0.271,1.412h3.635V69.715z M55.102,69.715h-6.539
			c-0.594,1.277-1.291,2.619-2.092,4.024c1.842,0.819,3.669,1.699,5.479,2.641C53.35,74.887,54.4,72.664,55.102,69.715z"/>
		<path fill="#717071" d="M99.416,80.776l-0.802,0.773c-4.264-2.861-7.006-6.794-8.219-11.797c-0.868,4.564-3.589,8.483-8.16,11.758
			l-0.742-0.839c1.555-1.012,2.978-2.275,4.266-3.796c1.289-1.519,2.27-3.192,2.943-5.021c0.675-1.827,1.036-4.3,1.082-7.415h1.143
			c-0.041,3.605,0.713,6.799,2.263,9.58C94.737,76.801,96.813,79.054,99.416,80.776z"/>
		<path fill="#717071" d="M138.573,77.468c-0.027,0.725-0.109,1.375-0.246,1.949c-0.138,0.576-0.334,0.991-0.592,1.25
			c-0.256,0.258-0.518,0.421-0.785,0.491c-0.267,0.069-1.363,0.125-3.289,0.166c-1.926,0.042-3.637,0.063-5.131,0.063
			c-1.416,0-2.422-0.018-3.016-0.052c-0.594-0.036-1.041-0.228-1.34-0.577c-0.303-0.35-0.451-0.82-0.451-1.412v-7.991l-2.934,0.725
			v-1.096l2.934-0.716v-4.101h1.111v3.805l4.636-1.135V64.44h1.101v4.148l6.568-1.602c-0.514,3.814-1.156,6.885-1.931,9.212
			l-1.042-0.21c0.753-2.365,1.291-4.898,1.612-7.6l-5.208,1.268v8.049h-1.101v-7.791l-4.636,1.153v8.449
			c0,0.102,0.048,0.259,0.146,0.472c0.097,0.214,0.31,0.328,0.64,0.343c0.33,0.017,1.7,0.024,4.11,0.024
			c4.327,0,6.677-0.073,7.056-0.219c0.375-0.146,0.624-1.192,0.744-3.138L138.573,77.468z"/>
		<path fill="#717071" d="M177.831,65.852h-2.293v14.353c0,0.426-0.158,0.75-0.475,0.973c-0.318,0.223-0.699,0.334-1.148,0.334
			c-1.821,0-3.04-0.007-3.654-0.02l-0.391-1.086c0.849,0.063,2.171,0.094,3.965,0.094c0.435,0,0.652-0.195,0.652-0.59V65.852h-14.5
			V64.87h17.844V65.852z M170.882,77.02h-8.66v-7.905h8.66V77.02z M169.811,76.009v-5.864h-6.518v5.864H169.811z"/>
		<path fill="#717071" d="M208.237,75.617c-3.673,2.474-6.543,4.178-8.612,5.111l-0.43-0.934l1.922-0.992V64.642h1.092v13.531
			c1.428-0.743,3.398-1.968,5.906-3.671L208.237,75.617z M210.059,71.05l-0.98,0.485c-0.881-1.684-2.18-3.474-3.896-5.368
			l1.043-0.477C208.106,67.884,209.385,69.67,210.059,71.05z M217.078,80.91l-0.822,0.705c-0.9-1.322-2.248-2.88-4.045-4.672
			c-1.215,1.576-3.147,3.159-5.797,4.749l-0.802-0.84c1.884-0.979,3.502-2.162,4.857-3.552c1.354-1.39,2.274-3.048,2.759-4.979
			c0.483-1.93,0.762-4.576,0.836-7.938h1.141c-0.147,5.676-0.945,9.57-2.393,11.681C214.789,78.087,216.209,79.702,217.078,80.91z"
			/>
	</g>
</g>
</svg>
